<svg width="10.527863" height="9.582031" viewBox="0 0 10.5279 9.58203" fill="none" xmlns="http://www.w3.org/2000/svg" xmlns:xlink="http://www.w3.org/1999/xlink">
	<desc>
			Created with Pixso.
	</desc>
	<defs/>
	<path id="star" d="M4.69917 0.333374L3.41418 2.81091L0.539192 3.20947C0.0236225 3.28052 -0.182999 3.88501 0.190887 4.2312L2.27087 6.15857L1.77892 8.88123C1.69037 9.37329 2.23545 9.74194 2.69199 9.51184L5.26393 8.22632L7.83587 9.51184C8.29241 9.74011 8.83749 9.37329 8.74894 8.88123L8.25699 6.15857L10.337 4.2312C10.7109 3.88501 10.5042 3.28052 9.98867 3.20947L7.11368 2.81091L5.8287 0.333374C5.59846 -0.108276 4.93137 -0.113892 4.69917 0.333374Z" fill="#FFFFFF" fill-opacity="1.000000" fill-rule="nonzero"/>
	<path id="star" d="M3.41418 2.81091L0.539192 3.20947C0.0236225 3.28052 -0.182999 3.88501 0.190887 4.2312L2.27087 6.15857L1.77892 8.88123C1.69037 9.37329 2.23545 9.74194 2.69199 9.51184L5.26393 8.22632L7.83587 9.51184C8.29241 9.74011 8.83749 9.37329 8.74894 8.88123L8.25699 6.15857L10.337 4.2312C10.7109 3.88501 10.5042 3.28052 9.98867 3.20947L7.11368 2.81091L5.8287 0.333374C5.59846 -0.108276 4.93137 -0.113892 4.69917 0.333374L3.41418 2.81091ZM1.95011 4.22534L3.57897 3.99951L4.19369 3.91431L5.26393 1.85083L6.33417 3.91431L8.57775 4.22534L6.95924 5.7251L7.35788 7.9314L5.26393 6.88477L3.16998 7.9314L3.56862 5.7251L1.95011 4.22534Z" fill="#CCCCCC" fill-opacity="1.000000" fill-rule="evenodd"/>
</svg>
